<?xml version="1.0" encoding="utf-8"?>
<!-- Generator: Adobe Illustrator 16.0.0, SVG Export Plug-In . SVG Version: 6.00 Build 0)  -->
<!DOCTYPE svg PUBLIC "-//W3C//DTD SVG 1.1//EN" "http://www.w3.org/Graphics/SVG/1.1/DTD/svg11.dtd">
<svg version="1.1" id="Calque_1" xmlns="http://www.w3.org/2000/svg" xmlns:xlink="http://www.w3.org/1999/xlink" x="0px" y="0px"
	 width="609.839px" height="179.14px" viewBox="0 0 609.839 179.14" enable-background="new 0 0 609.839 179.14"
	 xml:space="preserve">
<g>
	<path fill="#0F59B0" d="M455.178,84.358c-1.144-1.731-2.631-3.12-4.46-4.167c-1.83-1.044-4.053-1.568-6.665-1.568
		c-2.681,0-4.968,0.507-6.861,1.519c-1.897,1.014-3.448,2.37-4.657,4.068c-1.21,1.701-2.092,3.661-2.646,5.882
		c-0.556,2.222-0.834,4.543-0.834,6.959c0,2.289,0.229,4.575,0.688,6.862c0.456,2.289,1.24,4.362,2.352,6.225
		c1.111,1.862,2.581,3.366,4.411,4.509c1.829,1.145,4.117,1.715,6.862,1.715s5.081-0.571,7.01-1.715
		c1.926-1.143,3.479-2.646,4.655-4.509c1.176-1.863,2.041-3.97,2.598-6.323c0.554-2.352,0.833-4.705,0.833-7.058
		c0-2.221-0.262-4.411-0.784-6.567C457.154,88.034,456.321,86.09,455.178,84.358z"/>
	<path fill="#0F59B0" d="M387.347,99.54c-1.863,0.228-3.742,0.489-5.637,0.781c-1.896,0.293-3.595,0.765-5.098,1.414
		c-1.504,0.649-2.729,1.576-3.676,2.78c-0.948,1.204-1.422,2.846-1.422,4.926c0,1.366,0.277,2.52,0.833,3.463
		c0.555,0.943,1.274,1.708,2.157,2.292c0.882,0.585,1.911,1.008,3.088,1.268c1.176,0.26,2.417,0.389,3.725,0.389
		c2.745,0,5.097-0.374,7.058-1.121s3.562-1.691,4.804-2.829c1.24-1.138,2.156-2.375,2.745-3.707
		c0.587-1.333,0.882-2.585,0.882-3.755v-8.487c-1.047,0.781-2.419,1.349-4.117,1.708C390.987,99.02,389.208,99.312,387.347,99.54z"
		/>
	<path fill="#0F59B0" d="M588.099,0H21.74C9.733,0,0,9.733,0,21.74V157.4c0,12.007,9.734,21.74,21.74,21.74h566.359
		c12.007,0,21.74-9.733,21.74-21.74V21.74C609.839,9.733,600.106,0,588.099,0z M119.024,48.115c0,0-9.954,0-13.908,0
		c-4.91,0-5.933,2.011-5.933,7.091c0,4.228,0,12.273,0,12.273h19.841l-1.909,21.545H99.183v64.365H73.481V89.297H60.116V67.479
		h13.366c0,0,0-3.137,0-17.183c0-16.125,8.623-24.545,27.748-24.545c3.133,0,17.795,0,17.795,0V48.115z M214.237,89.112
		c-3.626,3.66-8.969,5.457-16.027,5.391h-21.369v28.624h-9.312v-69.99h30.681c7.058,0,12.401,1.813,16.027,5.44
		c3.627,3.627,5.441,8.709,5.441,15.243C219.678,80.355,217.865,85.453,214.237,89.112z M279.474,122.931
		c-1.439,0.849-3.432,1.274-5.98,1.274c-2.156,0-3.872-0.605-5.146-1.813c-1.274-1.208-1.911-3.186-1.911-5.931
		c-2.289,2.745-4.95,4.722-7.989,5.931c-3.039,1.208-6.323,1.813-9.852,1.813c-2.288,0-4.46-0.262-6.519-0.784
		c-2.058-0.522-3.839-1.339-5.342-2.451c-1.503-1.11-2.695-2.564-3.578-4.362c-0.882-1.796-1.323-3.97-1.323-6.519
		c0-2.875,0.49-5.228,1.471-7.058c0.979-1.829,2.269-3.315,3.871-4.46c1.601-1.143,3.431-2.009,5.489-2.598
		c2.059-0.588,4.167-1.078,6.323-1.47c2.287-0.457,4.459-0.799,6.519-1.029c2.058-0.228,3.872-0.554,5.439-0.98
		c1.568-0.424,2.811-1.044,3.726-1.862c0.915-0.816,1.373-2.009,1.373-3.578c0-1.829-0.344-3.299-1.029-4.411
		c-0.687-1.11-1.568-1.961-2.647-2.549c-1.078-0.588-2.288-0.98-3.627-1.176c-1.34-0.196-2.664-0.294-3.97-0.294
		c-3.529,0-6.469,0.67-8.822,2.009c-2.353,1.34-3.626,3.872-3.823,7.597h-8.332c0.13-3.137,0.784-5.784,1.96-7.94
		c1.176-2.156,2.744-3.904,4.705-5.244c1.96-1.338,4.198-2.303,6.715-2.892c2.514-0.588,5.21-0.882,8.086-0.882
		c2.287,0,4.558,0.164,6.813,0.49s4.296,0.994,6.126,2.005c1.829,1.011,3.3,2.429,4.411,4.255s1.667,4.206,1.667,7.139v26.019
		c0,1.958,0.113,3.392,0.344,4.304c0.228,0.913,0.994,1.369,2.303,1.369c0.719,0,1.568-0.13,2.55-0.392V122.931z M318.485,80.094
		c-3.333,0-6.176,0.458-8.527,1.372c-2.353,0.916-4.249,2.255-5.686,4.02c-1.438,1.764-2.484,3.905-3.138,6.42
		c-0.653,2.517-0.979,5.408-0.979,8.675v22.546h-8.332V72.448h7.842v10.685h0.196c2.024-4.117,4.509-7.156,7.449-9.117
		c2.941-1.96,6.666-2.875,11.175-2.745V80.094z M351.323,79.8h-10.097v31.466c0,0.98,0.082,1.765,0.245,2.353
		c0.162,0.588,0.473,1.046,0.931,1.373c0.457,0.328,1.095,0.539,1.912,0.637c0.816,0.098,1.878,0.147,3.187,0.147h3.822v7.352
		h-6.371c-2.157,0-4.004-0.147-5.539-0.441c-1.536-0.294-2.778-0.833-3.725-1.617c-0.948-0.785-1.651-1.895-2.108-3.333
		c-0.458-1.437-0.686-3.333-0.686-5.686V79.8h-8.626v-7.352h8.626V57.254h8.332v15.194h10.097V79.8z M410.333,122.931
		c-1.438,0.849-3.431,1.274-5.979,1.274c-2.157,0-3.873-0.605-5.146-1.813c-1.274-1.208-1.911-3.186-1.911-5.931
		c-2.288,2.745-4.951,4.722-7.99,5.931c-3.037,1.208-6.321,1.813-9.851,1.813c-2.288,0-4.461-0.262-6.519-0.784
		c-2.059-0.522-3.84-1.339-5.342-2.451c-1.505-1.11-2.697-2.564-3.579-4.362c-0.882-1.796-1.323-3.97-1.323-6.519
		c0-2.875,0.491-5.228,1.471-7.058c0.979-1.829,2.271-3.315,3.872-4.46c1.601-1.143,3.431-2.009,5.489-2.598
		c2.059-0.588,4.167-1.078,6.322-1.47c2.287-0.457,4.461-0.799,6.519-1.029c2.059-0.228,3.873-0.554,5.441-0.98
		c1.568-0.424,2.809-1.044,3.725-1.862c0.914-0.816,1.372-2.009,1.372-3.578c0-1.829-0.344-3.299-1.029-4.411
		c-0.687-1.111-1.568-1.961-2.646-2.549c-1.079-0.588-2.289-0.98-3.627-1.176c-1.34-0.196-2.663-0.294-3.97-0.294
		c-3.529,0-6.471,0.67-8.822,2.009c-2.353,1.34-3.627,3.872-3.823,7.597h-8.332c0.13-3.137,0.784-5.784,1.96-7.94
		c1.177-2.156,2.745-3.904,4.706-5.244c1.961-1.338,4.198-2.303,6.714-2.892s5.211-0.882,8.088-0.882
		c2.287,0,4.558,0.164,6.812,0.49c2.254,0.326,4.296,0.994,6.127,2.005c1.829,1.011,3.298,2.429,4.41,4.255
		c1.11,1.826,1.667,4.206,1.667,7.139v26.02c0,1.958,0.112,3.391,0.343,4.304c0.228,0.913,0.996,1.369,2.304,1.369
		c0.719,0,1.568-0.13,2.549-0.392V122.931z M466.696,118.813c0,8.298-1.896,14.508-5.686,18.625
		c-3.791,4.117-9.738,6.176-17.84,6.176c-2.354,0-4.755-0.262-7.205-0.785c-2.451-0.523-4.673-1.372-6.666-2.548
		c-1.994-1.176-3.645-2.712-4.95-4.607c-1.309-1.896-2.026-4.215-2.157-6.959h8.332c0.065,1.502,0.54,2.777,1.422,3.823
		c0.883,1.044,1.961,1.895,3.234,2.549c1.274,0.652,2.663,1.127,4.166,1.421s2.941,0.441,4.313,0.441
		c2.744,0,5.063-0.475,6.96-1.421c1.895-0.948,3.464-2.254,4.705-3.921c1.24-1.666,2.14-3.676,2.695-6.028
		c0.555-2.353,0.834-4.933,0.834-7.744V114.5h-0.196c-1.438,3.137-3.611,5.44-6.519,6.911c-2.908,1.471-5.997,2.206-9.264,2.206
		c-3.791,0-7.092-0.686-9.9-2.059c-2.811-1.373-5.163-3.218-7.058-5.538c-1.896-2.319-3.318-5.032-4.264-8.136
		c-0.948-3.104-1.422-6.387-1.422-9.852c0-3.005,0.392-6.093,1.177-9.264c0.783-3.168,2.09-6.043,3.921-8.626
		c1.828-2.581,4.247-4.705,7.254-6.372c3.005-1.667,6.697-2.5,11.076-2.5c3.201,0,6.142,0.703,8.822,2.107
		c2.68,1.406,4.77,3.514,6.274,6.323h0.098v-7.254h7.842V118.813z M528.157,100.287h-37.936c-0.066,2.223,0.195,4.33,0.784,6.323
		c0.588,1.994,1.534,3.759,2.842,5.293c1.308,1.536,2.974,2.761,5,3.676c2.024,0.916,4.41,1.372,7.156,1.372
		c3.528,0,6.42-0.816,8.674-2.451c2.256-1.633,3.741-4.117,4.461-7.45h8.234c-1.112,5.686-3.563,9.967-7.352,12.841
		c-3.791,2.876-8.562,4.313-14.312,4.313c-4.053,0-7.564-0.654-10.537-1.96c-2.976-1.307-5.475-3.137-7.5-5.49
		c-2.026-2.353-3.546-5.161-4.557-8.43c-1.016-3.267-1.586-6.828-1.716-10.685c0-3.855,0.587-7.384,1.765-10.587
		c1.176-3.201,2.825-5.979,4.949-8.332c2.123-2.353,4.64-4.181,7.549-5.489c2.906-1.307,6.093-1.96,9.557-1.96
		c4.51,0,8.25,0.931,11.224,2.794c2.974,1.862,5.358,4.231,7.156,7.106c1.797,2.876,3.039,6.013,3.726,9.41
		C528.01,93.981,528.287,97.216,528.157,100.287z M568.052,80.094c-3.333,0-6.176,0.458-8.528,1.372
		c-2.353,0.916-4.249,2.255-5.686,4.02c-1.438,1.764-2.484,3.905-3.137,6.42c-0.654,2.517-0.98,5.408-0.98,8.675v22.545h-8.332
		V72.448h7.842v10.685h0.196c2.025-4.117,4.51-7.156,7.45-9.116s6.665-2.875,11.175-2.745V80.094z"/>
	<path fill="#0F59B0" d="M195.074,60.979h-18.232v25.683h18.232c5.293,0.066,9.166-1.012,11.616-3.234
		c2.451-2.221,3.676-5.424,3.676-9.606c0-4.182-1.226-7.367-3.676-9.558C204.239,62.074,200.367,60.979,195.074,60.979z"/>
	<path fill="#0F59B0" d="M514.973,82.79c-1.274-1.274-2.779-2.287-4.51-3.039c-1.732-0.75-3.643-1.127-5.734-1.127
		c-2.156,0-4.101,0.376-5.832,1.127c-1.732,0.752-3.22,1.781-4.46,3.088c-1.242,1.308-2.223,2.827-2.94,4.558
		c-0.721,1.732-1.145,3.578-1.274,5.539h29.113c-0.132-1.96-0.573-3.823-1.324-5.587C517.259,85.583,516.246,84.063,514.973,82.79z"
		/>
	<path fill="#0F59B0" d="M256.486,99.54c-1.862,0.228-3.742,0.489-5.637,0.781c-1.896,0.293-3.595,0.765-5.097,1.414
		c-1.503,0.649-2.729,1.576-3.676,2.78c-0.948,1.204-1.421,2.846-1.421,4.926c0,1.366,0.277,2.52,0.833,3.463
		c0.555,0.943,1.274,1.708,2.157,2.292s1.911,1.008,3.088,1.268c1.176,0.26,2.417,0.389,3.725,0.389
		c2.744,0,5.097-0.374,7.058-1.121s3.561-1.691,4.804-2.829c1.24-1.138,2.155-2.375,2.744-3.707
		c0.588-1.333,0.882-2.585,0.882-3.755v-8.487c-1.046,0.781-2.419,1.35-4.117,1.708C260.128,99.021,258.349,99.312,256.486,99.54z"
		/>
</g>
</svg>
